<svg width="120" height="120" viewBox="0 0 120 120" fill="none" xmlns="http://www.w3.org/2000/svg">
<rect width="120" height="120" fill="#FFDF71"/>
<path fill-rule="evenodd" clip-rule="evenodd" d="M77.2808 20.7824C78.3721 20.9532 79.1184 21.9763 78.9476 23.0675L72.7827 62.4667C72.6119 63.558 71.5888 64.3042 70.4975 64.1335L67.8602 63.7208C66.7689 63.55 66.0227 62.527 66.1935 61.4357L72.3584 22.0365C72.5292 20.9452 73.5523 20.199 74.6435 20.3697L77.2808 20.7824Z" fill="black"/>
<path d="M66.5111 37.5834C66.5111 44.7661 60.6884 50.5888 53.5058 50.5888C46.3232 50.5888 40.5005 44.7661 40.5005 37.5834C40.5005 30.4008 46.3232 24.5781 53.5058 24.5781C60.6884 24.5781 66.5111 30.4008 66.5111 37.5834Z" fill="#FF004D"/>
<path fill-rule="evenodd" clip-rule="evenodd" d="M53.5058 43.9194C57.005 43.9194 59.8417 41.0827 59.8417 37.5834C59.8417 34.0842 57.005 31.2475 53.5058 31.2475C50.0066 31.2475 47.1699 34.0842 47.1699 37.5834C47.1699 41.0827 50.0066 43.9194 53.5058 43.9194ZM53.5058 50.5888C60.6884 50.5888 66.5111 44.7661 66.5111 37.5834C66.5111 30.4008 60.6884 24.5781 53.5058 24.5781C46.3232 24.5781 40.5005 30.4008 40.5005 37.5834C40.5005 44.7661 46.3232 50.5888 53.5058 50.5888Z" fill="black"/>
<path d="M33.3448 42.7459C33.2488 41.9515 33.8689 41.252 34.669 41.252H82.5147C83.3097 41.252 83.9282 41.943 83.8404 42.7331L78.1344 94.0875C78.0594 94.763 77.4884 95.274 76.8087 95.274H40.8759C40.2011 95.274 39.6327 94.7701 39.5517 94.1002L33.3448 42.7459Z" fill="white"/>
<path fill-rule="evenodd" clip-rule="evenodd" d="M30.0344 43.1458C29.6983 40.3655 31.8687 37.917 34.6692 37.917H82.5149C85.2975 37.917 87.4622 40.3356 87.1549 43.1011L81.4489 94.4555C81.1862 96.8198 79.1877 98.6085 76.8089 98.6085H40.8761C38.5144 98.6085 36.5247 96.8448 36.2413 94.5001L30.0344 43.1458ZM36.9264 44.5864L42.6497 91.9391H75.0181L80.2795 44.5864H36.9264Z" fill="black"/>
<path fill-rule="evenodd" clip-rule="evenodd" d="M82.4479 56.5918L78.2817 94.0877C78.2067 94.7632 77.6357 95.2743 76.956 95.2743H41.0232C40.3484 95.2743 39.78 94.7704 39.699 94.1005L35.1655 56.5918H82.4479Z" fill="#FFDF71"/>
<path fill-rule="evenodd" clip-rule="evenodd" d="M31.4038 53.2568H86.174L81.5963 94.4557C81.3336 96.82 79.3351 98.6087 76.9563 98.6087H41.0235C38.6618 98.6087 36.6721 96.845 36.3887 94.5003L31.4038 53.2568ZM38.9278 59.9262L42.7971 91.9393H75.1655L78.7225 59.9262H38.9278Z" fill="black"/>
</svg>
