<svg width="385" height="120" viewBox="0 0 385 120" fill="none" xmlns="http://www.w3.org/2000/svg">
<path d="M125.322 97H172.393V82.5957H143.242V26.541H125.322V97ZM193.391 97.7324C195.702 97.7324 197.818 97.4069 199.738 96.7559C201.659 96.1048 203.368 95.1608 204.865 93.9238C206.363 92.6868 207.616 91.2057 208.625 89.4805H208.967V97H226.301V60.6719C226.301 57.0911 225.308 53.9499 223.322 51.248C221.369 48.5462 218.602 46.4466 215.021 44.9492C211.473 43.4518 207.323 42.7031 202.57 42.7031C197.622 42.7031 193.358 43.4355 189.777 44.9004C186.229 46.3652 183.462 48.3997 181.477 51.0039C179.491 53.6081 178.352 56.6517 178.059 60.1348L178.01 60.7695H193.635L193.732 60.2812C194.025 58.9141 194.839 57.7585 196.174 56.8145C197.508 55.8704 199.348 55.3984 201.691 55.3984C204.068 55.3984 205.874 55.9681 207.111 57.1074C208.348 58.2142 208.967 59.7279 208.967 61.6484V77.957C208.967 79.4219 208.544 80.7565 207.697 81.9609C206.883 83.1328 205.76 84.0605 204.328 84.7441C202.928 85.3952 201.301 85.7207 199.445 85.7207C197.329 85.7207 195.62 85.2812 194.318 84.4023C193.049 83.4909 192.414 82.2051 192.414 80.5449V80.4961C192.414 78.901 193.016 77.6315 194.221 76.6875C195.425 75.7109 197.232 75.1576 199.641 75.0273L218.146 73.7578V63.6992L196.857 65.0664C190.021 65.5221 184.732 67.1497 180.988 69.9492C177.277 72.7161 175.422 76.6061 175.422 81.6191V81.668C175.422 84.7604 176.171 87.5273 177.668 89.9688C179.198 92.3776 181.314 94.2819 184.016 95.6816C186.717 97.0488 189.842 97.7324 193.391 97.7324ZM255.941 98.123C260.824 98.123 265.105 97.3906 268.783 95.9258C272.462 94.4609 275.342 92.3776 277.426 89.6758C279.509 86.974 280.551 83.8001 280.551 80.1543V80.1055C280.551 76.1341 279.265 72.9928 276.693 70.6816C274.154 68.3379 270.036 66.6126 264.34 65.5059L255.014 63.6504C252.475 63.1621 250.733 62.5436 249.789 61.7949C248.845 61.0462 248.373 60.1022 248.373 58.9629V58.9141C248.373 57.9701 248.65 57.1725 249.203 56.5215C249.789 55.8379 250.603 55.3171 251.645 54.959C252.686 54.5684 253.907 54.373 255.307 54.373C257.715 54.373 259.587 54.9427 260.922 56.082C262.257 57.1888 263.005 58.5234 263.168 60.0859L263.217 60.4766H279.037V60.0859C279.005 56.8958 278.077 53.9987 276.254 51.3945C274.431 48.7578 271.762 46.6582 268.246 45.0957C264.763 43.5007 260.45 42.7031 255.307 42.7031C250.489 42.7031 246.29 43.403 242.709 44.8027C239.161 46.2025 236.426 48.1882 234.506 50.7598C232.618 53.2988 231.674 56.3424 231.674 59.8906V59.9395C231.674 63.9759 233.008 67.3288 235.678 69.998C238.347 72.6348 242.286 74.474 247.494 75.5156L256.869 77.3223C259.245 77.8105 260.906 78.429 261.85 79.1777C262.826 79.8939 263.314 80.8379 263.314 82.0098V82.0586C263.314 82.9375 263.021 83.7188 262.436 84.4023C261.85 85.0534 261.003 85.5579 259.896 85.916C258.79 86.2741 257.471 86.4531 255.941 86.4531C253.435 86.4531 251.465 85.9486 250.033 84.9395C248.633 83.9303 247.722 82.5306 247.299 80.7402L247.201 80.3496H230.404L230.453 80.7891C230.844 84.2396 232.048 87.2669 234.066 89.8711C236.085 92.4753 238.917 94.5098 242.562 95.9746C246.208 97.4069 250.668 98.123 255.941 98.123ZM308.043 98.123C312.926 98.123 317.206 97.3906 320.885 95.9258C324.563 94.4609 327.444 92.3776 329.527 89.6758C331.611 86.974 332.652 83.8001 332.652 80.1543V80.1055C332.652 76.1341 331.367 72.9928 328.795 70.6816C326.256 68.3379 322.138 66.6126 316.441 65.5059L307.115 63.6504C304.576 63.1621 302.835 62.5436 301.891 61.7949C300.947 61.0462 300.475 60.1022 300.475 58.9629V58.9141C300.475 57.9701 300.751 57.1725 301.305 56.5215C301.891 55.8379 302.704 55.3171 303.746 54.959C304.788 54.5684 306.008 54.373 307.408 54.373C309.817 54.373 311.689 54.9427 313.023 56.082C314.358 57.1888 315.107 58.5234 315.27 60.0859L315.318 60.4766H331.139V60.0859C331.106 56.8958 330.178 53.9987 328.355 51.3945C326.533 48.7578 323.863 46.6582 320.348 45.0957C316.865 43.5007 312.551 42.7031 307.408 42.7031C302.59 42.7031 298.391 43.403 294.811 44.8027C291.262 46.2025 288.528 48.1882 286.607 50.7598C284.719 53.2988 283.775 56.3424 283.775 59.8906V59.9395C283.775 63.9759 285.11 67.3288 287.779 69.998C290.449 72.6348 294.387 74.474 299.596 75.5156L308.971 77.3223C311.347 77.8105 313.007 78.429 313.951 79.1777C314.928 79.8939 315.416 80.8379 315.416 82.0098V82.0586C315.416 82.9375 315.123 83.7188 314.537 84.4023C313.951 85.0534 313.105 85.5579 311.998 85.916C310.891 86.2741 309.573 86.4531 308.043 86.4531C305.536 86.4531 303.567 85.9486 302.135 84.9395C300.735 83.9303 299.824 82.5306 299.4 80.7402L299.303 80.3496H282.506L282.555 80.7891C282.945 84.2396 284.15 87.2669 286.168 89.8711C288.186 92.4753 291.018 94.5098 294.664 95.9746C298.31 97.4069 302.77 98.123 308.043 98.123ZM336.902 97H354.236V43.8262H336.902V97ZM345.545 38.1133C348.051 38.1133 350.151 37.2669 351.844 35.5742C353.536 33.8815 354.383 31.8796 354.383 29.5684C354.383 27.2246 353.536 25.2227 351.844 23.5625C350.151 21.8698 348.051 21.0234 345.545 21.0234C343.071 21.0234 340.971 21.8698 339.246 23.5625C337.553 25.2227 336.707 27.2246 336.707 29.5684C336.707 31.8796 337.553 33.8815 339.246 35.5742C340.971 37.2669 343.071 38.1133 345.545 38.1133Z" fill="black"/>
<path fill-rule="evenodd" clip-rule="evenodd" d="M75.4295 15.8087C76.5208 15.9794 77.267 17.0025 77.0963 18.0938L70.3601 61.1439C70.1893 62.2352 69.1662 62.9815 68.0749 62.8107L64.8827 62.3112C63.7914 62.1405 63.0452 61.1174 63.2159 60.0261L69.9521 16.976C70.1229 15.8847 71.146 15.1384 72.2373 15.3092L75.4295 15.8087Z" fill="black"/>
<path d="M63.5855 33.999C63.5855 41.7866 57.2724 48.0996 49.4849 48.0996C41.6973 48.0996 35.3843 41.7866 35.3843 33.999C35.3843 26.2115 41.6973 19.8984 49.4849 19.8984C57.2724 19.8984 63.5855 26.2115 63.5855 33.999Z" fill="#FF004D"/>
<path fill-rule="evenodd" clip-rule="evenodd" d="M49.4849 40.8686C53.2788 40.8686 56.3544 37.793 56.3544 33.999C56.3544 30.2051 53.2788 27.1295 49.4849 27.1295C45.6909 27.1295 42.6154 30.2051 42.6154 33.999C42.6154 37.793 45.6909 40.8686 49.4849 40.8686ZM49.4849 48.0996C57.2724 48.0996 63.5855 41.7866 63.5855 33.999C63.5855 26.2115 57.2724 19.8984 49.4849 19.8984C41.6973 19.8984 35.3843 26.2115 35.3843 33.999C35.3843 41.7866 41.6973 48.0996 49.4849 48.0996Z" fill="black"/>
<path d="M27.6264 39.5963C27.5223 38.735 28.1946 37.9766 29.0621 37.9766H80.9373C81.7993 37.9766 82.4699 38.7258 82.3747 39.5825L76.1881 95.2618C76.1067 95.9942 75.4877 96.5483 74.7507 96.5483H35.7918C35.0602 96.5483 34.4438 96.0019 34.356 95.2756L27.6264 39.5963Z" fill="white"/>
<path fill-rule="evenodd" clip-rule="evenodd" d="M24.0373 40.0295C23.6729 37.015 26.0261 34.3604 29.0625 34.3604H80.9376C83.9545 34.3604 86.3016 36.9827 85.9684 39.9811L79.7818 95.6604C79.497 98.2238 77.3303 100.163 74.7511 100.163H35.7921C33.2315 100.163 31.0742 98.2509 30.7669 95.7088L24.0373 40.0295ZM31.5098 41.5914L37.715 92.9321H72.8094L78.5139 41.5914H31.5098Z" fill="black"/>
<path fill-rule="evenodd" clip-rule="evenodd" d="M80.865 54.6064L76.3479 95.2602C76.2666 95.9926 75.6475 96.5467 74.9106 96.5467H35.9516C35.22 96.5467 34.6036 96.0003 34.5158 95.274L29.6006 54.6064H80.865Z" fill="#FFDF71"/>
<path fill-rule="evenodd" clip-rule="evenodd" d="M25.522 50.9941H84.9048L79.9416 95.6627C79.6568 98.2262 77.49 100.165 74.9108 100.165H35.9518C33.3912 100.165 31.2339 98.2532 30.9267 95.7111L25.522 50.9941ZM33.6797 58.2252L37.8748 92.9344H72.9691L76.8257 58.2252H33.6797Z" fill="black"/>
</svg>
