<svg width="120" height="120" viewBox="0 0 120 120" fill="none" xmlns="http://www.w3.org/2000/svg">
<path fill-rule="evenodd" clip-rule="evenodd" d="M82.5746 10.986C83.6659 11.1567 84.4121 12.1798 84.2413 13.2711L76.3388 63.7752C76.168 64.8665 75.1449 65.6128 74.0536 65.442L69.7284 64.7652C68.6371 64.5945 67.8909 63.5714 68.0616 62.4801L75.9642 11.976C76.135 10.8847 77.158 10.1384 78.2493 10.3092L82.5746 10.986Z" fill="black"/>
<path d="M68.5398 32.0116C68.5398 41.0342 61.2256 48.3484 52.203 48.3484C43.1804 48.3484 35.8662 41.0342 35.8662 32.0116C35.8662 22.989 43.1804 15.6748 52.203 15.6748C61.2256 15.6748 68.5398 22.989 68.5398 32.0116Z" fill="#FF004D"/>
<path fill-rule="evenodd" clip-rule="evenodd" d="M52.203 39.9706C56.5986 39.9706 60.162 36.4072 60.162 32.0116C60.162 27.616 56.5986 24.0527 52.203 24.0527C47.8074 24.0527 44.2441 27.616 44.2441 32.0116C44.2441 36.4072 47.8074 39.9706 52.203 39.9706ZM52.203 48.3484C61.2256 48.3484 68.5398 41.0342 68.5398 32.0116C68.5398 22.989 61.2256 15.6748 52.203 15.6748C43.1804 15.6748 35.8662 22.989 35.8662 32.0116C35.8662 41.0342 43.1804 48.3484 52.203 48.3484Z" fill="black"/>
<path d="M26.8776 38.4967C26.757 37.4989 27.5359 36.6201 28.541 36.6201H88.6431C89.6417 36.6201 90.4187 37.4882 90.3084 38.4807L83.1407 102.99C83.0464 103.839 82.3291 104.481 81.4753 104.481H36.3379C35.4903 104.481 34.7762 103.848 34.6745 103.006L26.8776 38.4967Z" fill="white"/>
<path fill-rule="evenodd" clip-rule="evenodd" d="M22.719 38.9988C22.2968 35.5064 25.0232 32.4307 28.5411 32.4307H88.6431C92.1384 32.4307 94.8577 35.4689 94.4717 38.9428L87.304 103.452C86.974 106.422 84.4636 108.669 81.4754 108.669H36.338C33.3713 108.669 30.8718 106.454 30.5158 103.508L22.719 38.9988ZM31.3765 40.8085L38.5658 100.291H79.2258L85.835 40.8085H31.3765Z" fill="black"/>
<path fill-rule="evenodd" clip-rule="evenodd" d="M88.559 55.8896L83.3255 102.991C83.2312 103.839 82.514 104.481 81.6602 104.481H36.5228C35.6751 104.481 34.961 103.848 34.8593 103.007L29.1646 55.8896H88.559Z" fill="#FFDF71"/>
<path fill-rule="evenodd" clip-rule="evenodd" d="M24.439 51.7002H93.2392L87.4889 103.453C87.159 106.423 84.6485 108.67 81.6603 108.67H36.5229C33.5562 108.67 31.0567 106.454 30.7008 103.509L24.439 51.7002ZM33.8904 60.078L38.7508 100.292H79.4107L83.8789 60.078H33.8904Z" fill="black"/>
</svg>
